<svg width="43" height="43" viewBox="0 0 43 43" fill="none" xmlns="http://www.w3.org/2000/svg">
<path d="M34.0417 7.16668H28.6667V3.58334H25.0833V7.16668H17.9167V3.58334H14.3333V7.16668H8.95833C6.98212 7.16668 5.375 8.7738 5.375 10.75V35.8333C5.375 37.8096 6.98212 39.4167 8.95833 39.4167H34.0417C36.0179 39.4167 37.625 37.8096 37.625 35.8333V10.75C37.625 8.7738 36.0179 7.16668 34.0417 7.16668ZM8.95833 35.8333V12.5417H34.0417V10.75L34.0453 35.8333H8.95833Z" fill="#CCCCCC"/>
<path d="M28.0002 21.8279L24.7752 18.6047L27.2297 16.1483L30.4547 19.3715L28.0002 21.8279ZM14.3423 29.0268V32.25H17.5655L26.4808 23.3454L23.2576 20.1222L14.3423 29.0268Z" fill="#CCCCCC"/>
</svg>
