<svg width="52" height="53" viewBox="0 0 52 53" fill="none" xmlns="http://www.w3.org/2000/svg">
<path opacity="0.5" d="M0.228882 26.3153C0.228882 14.1374 0.228882 8.04852 4.01088 4.26393C7.79805 0.481934 13.8844 0.481934 26.0622 0.481934C38.24 0.481934 44.329 0.481934 48.111 4.26393C51.8955 8.0511 51.8955 14.1374 51.8955 26.3153C51.8955 38.4931 51.8955 44.582 48.111 48.364C44.3315 52.1486 38.24 52.1486 26.0622 52.1486C13.8844 52.1486 7.79546 52.1486 4.01088 48.364C0.228882 44.5846 0.228882 38.4931 0.228882 26.3153Z" fill="white"/>
<path d="M22.236 15.4189C22.419 15.2363 22.5636 15.0188 22.6612 14.7794C22.7589 14.5399 22.8076 14.2834 22.8045 14.0248C22.8015 13.7663 22.7467 13.5109 22.6434 13.2739C22.5401 13.0368 22.3905 12.8229 22.2032 12.6446C22.0159 12.4663 21.7949 12.3272 21.553 12.2357C21.3112 12.1442 21.0535 12.102 20.7951 12.1116C20.5367 12.1212 20.2829 12.1825 20.0485 12.2917C19.8141 12.401 19.604 12.556 19.4305 12.7478L13.4527 19.0253L11.9027 17.3978C11.7292 17.206 11.5191 17.051 11.2847 16.9417C11.0504 16.8325 10.7965 16.7712 10.5381 16.7616C10.2797 16.752 10.022 16.7942 9.78021 16.8857C9.53838 16.9772 9.31732 17.1163 9.13005 17.2946C8.94278 17.4729 8.7931 17.6868 8.68982 17.9239C8.58655 18.1609 8.53176 18.4163 8.5287 18.6748C8.52564 18.9334 8.57436 19.1899 8.672 19.4294C8.76964 19.6688 8.91421 19.8863 9.09721 20.0689L12.05 23.1689C12.2309 23.3589 12.4485 23.5101 12.6897 23.6134C12.9308 23.7167 13.1904 23.77 13.4527 23.77C13.715 23.77 13.9746 23.7167 14.2157 23.6134C14.4569 23.5101 14.6745 23.3589 14.8555 23.1689L22.236 15.4189ZM28.5833 17.3125C28.0694 17.3125 27.5766 17.5167 27.2133 17.88C26.8499 18.2434 26.6458 18.7362 26.6458 19.25C26.6458 19.7639 26.8499 20.2567 27.2133 20.62C27.5766 20.9834 28.0694 21.1875 28.5833 21.1875H41.5C42.0138 21.1875 42.5066 20.9834 42.87 20.62C43.2333 20.2567 43.4375 19.7639 43.4375 19.25C43.4375 18.7362 43.2333 18.2434 42.87 17.88C42.5066 17.5167 42.0138 17.3125 41.5 17.3125H28.5833ZM22.236 33.5023C22.419 33.3196 22.5636 33.1021 22.6612 32.8627C22.7589 32.6233 22.8076 32.3667 22.8045 32.1082C22.8015 31.8496 22.7467 31.5943 22.6434 31.3572C22.5401 31.1202 22.3905 30.9062 22.2032 30.7279C22.0159 30.5496 21.7949 30.4106 21.553 30.319C21.3112 30.2275 21.0535 30.1853 20.7951 30.1949C20.5367 30.2046 20.2829 30.2658 20.0485 30.3751C19.8141 30.4843 19.604 30.6394 19.4305 30.8311L13.4527 37.1086L11.9027 35.4811C11.7292 35.2894 11.5191 35.1343 11.2847 35.0251C11.0504 34.9158 10.7965 34.8546 10.5381 34.8449C10.2797 34.8353 10.022 34.8775 9.78021 34.969C9.53838 35.0606 9.31732 35.1996 9.13005 35.3779C8.94278 35.5562 8.7931 35.7702 8.68982 36.0072C8.58655 36.2443 8.53176 36.4996 8.5287 36.7582C8.52564 37.0167 8.57436 37.2733 8.672 37.5127C8.76964 37.7521 8.91421 37.9696 9.09721 38.1523L12.05 41.2523C12.2309 41.4422 12.4485 41.5934 12.6897 41.6967C12.9308 41.8 13.1904 41.8533 13.4527 41.8533C13.715 41.8533 13.9746 41.8 14.2157 41.6967C14.4569 41.5934 14.6745 41.4422 14.8555 41.2523L22.236 33.5023ZM28.5833 35.3959C28.0694 35.3959 27.5766 35.6 27.2133 35.9633C26.8499 36.3267 26.6458 36.8195 26.6458 37.3334C26.6458 37.8472 26.8499 38.34 27.2133 38.7034C27.5766 39.0667 28.0694 39.2709 28.5833 39.2709H41.5C42.0138 39.2709 42.5066 39.0667 42.87 38.7034C43.2333 38.34 43.4375 37.8472 43.4375 37.3334C43.4375 36.8195 43.2333 36.3267 42.87 35.9633C42.5066 35.6 42.0138 35.3959 41.5 35.3959H28.5833Z" fill="white"/>
</svg>
